# xmcd
#
# Track frame offsets: 
#        150
#        22290
#        44227
#        64302
#        93340
#        116325
#        133347
#        149002
#        166655
#        186082
#        206490
#        221515
#
# Disc length: 3369 seconds
#
# Revision: 0
# Processed by: cddbd v1.5.1PL0 Copyright (c) Steve Scherf et al.
# Submitted via: ExactAudioCopy v0.95a5
#
DISCID=be0d270c
DTITLE=Alanda Williams - Kid Dynamite
DYEAR=1998
DGENRE=Blues
TTITLE0=Christina
TTITLE1=You Need To Know
TTITLE2=I Want Your Love
TTITLE3=Looking For My Baby
TTITLE4=Sailor, Sailor
TTITLE5=Kepp It In The Groove
TTITLE6=Out Of Bounds
TTITLE7=Kid Dynamite
TTITLE8=Big Butt Woman
TTITLE9=Jacksboro Highway
TTITLE10=I Wanna Tell Ya
TTITLE11=Ome More River
EXTD=
EXTT0=
EXTT1=
EXTT2=
EXTT3=
EXTT4=
EXTT5=
EXTT6=
EXTT7=
EXTT8=
EXTT9=
EXTT10=
EXTT11=
PLAYORDER=
